<svg xmlns="http://www.w3.org/2000/svg" viewBox="0 0 900 300" width="900" height="300" role="img" aria-label="Discovery visibility over time with an initiative marker">
<rect x="0" y="0" width="900" height="300" fill="#ffffff"/>
<line x1="66" y1="256.0" x2="872" y2="256.0" stroke="#e8eaee" stroke-width="1"/>
<text x="56" y="260.0" text-anchor="end" style="font-family:-apple-system,Segoe UI,Roboto,Helvetica,Arial,sans-serif;font-size:13px;fill:#64748b">0%</text>
<line x1="66" y1="203.5" x2="872" y2="203.5" stroke="#e8eaee" stroke-width="1"/>
<text x="56" y="207.5" text-anchor="end" style="font-family:-apple-system,Segoe UI,Roboto,Helvetica,Arial,sans-serif;font-size:13px;fill:#64748b">10%</text>
<line x1="66" y1="151.0" x2="872" y2="151.0" stroke="#e8eaee" stroke-width="1"/>
<text x="56" y="155.0" text-anchor="end" style="font-family:-apple-system,Segoe UI,Roboto,Helvetica,Arial,sans-serif;font-size:13px;fill:#64748b">20%</text>
<line x1="66" y1="98.5" x2="872" y2="98.5" stroke="#e8eaee" stroke-width="1"/>
<text x="56" y="102.5" text-anchor="end" style="font-family:-apple-system,Segoe UI,Roboto,Helvetica,Arial,sans-serif;font-size:13px;fill:#64748b">30%</text>
<line x1="66" y1="46.0" x2="872" y2="46.0" stroke="#e8eaee" stroke-width="1"/>
<text x="56" y="50.0" text-anchor="end" style="font-family:-apple-system,Segoe UI,Roboto,Helvetica,Arial,sans-serif;font-size:13px;fill:#64748b">40%</text>
<text x="66.0" y="278.0" text-anchor="middle" style="font-family:-apple-system,Segoe UI,Roboto,Helvetica,Arial,sans-serif;font-size:13px;fill:#64748b">Jun 19</text>
<text x="190.0" y="278.0" text-anchor="middle" style="font-family:-apple-system,Segoe UI,Roboto,Helvetica,Arial,sans-serif;font-size:13px;fill:#64748b">Jun 23</text>
<text x="314.0" y="278.0" text-anchor="middle" style="font-family:-apple-system,Segoe UI,Roboto,Helvetica,Arial,sans-serif;font-size:13px;fill:#64748b">Jun 27</text>
<text x="438.0" y="278.0" text-anchor="middle" style="font-family:-apple-system,Segoe UI,Roboto,Helvetica,Arial,sans-serif;font-size:13px;fill:#64748b">Jul 1</text>
<text x="562.0" y="278.0" text-anchor="middle" style="font-family:-apple-system,Segoe UI,Roboto,Helvetica,Arial,sans-serif;font-size:13px;fill:#64748b">Jul 5</text>
<text x="686.0" y="278.0" text-anchor="middle" style="font-family:-apple-system,Segoe UI,Roboto,Helvetica,Arial,sans-serif;font-size:13px;fill:#64748b">Jul 9</text>
<text x="810.0" y="278.0" text-anchor="middle" style="font-family:-apple-system,Segoe UI,Roboto,Helvetica,Arial,sans-serif;font-size:13px;fill:#64748b">Jul 13</text>
<text transform="translate(20,151.0) rotate(-90)" text-anchor="middle" style="font-family:-apple-system,Segoe UI,Roboto,Helvetica,Arial,sans-serif;font-size:13px;fill:#64748b">Discovery visibility</text>
<defs><linearGradient id="g" x1="0" y1="0" x2="0" y2="1"><stop offset="0" stop-color="#4f46e5" stop-opacity="0.18"/><stop offset="1" stop-color="#4f46e5" stop-opacity="0"/></linearGradient></defs>
<path d="M66.0,145.8 L128.0,135.2 L190.0,140.5 L252.0,151.0 L314.0,130.0 L376.0,135.2 L438.0,124.8 L500.0,140.5 L562.0,119.5 L624.0,130.0 L686.0,114.2 L748.0,124.8 L810.0,119.5 L872.0,130.0 L872.0,256 L66,256 Z" fill="url(#g)"/>
<path d="M66.0,145.8 L128.0,135.2 L190.0,140.5 L252.0,151.0 L314.0,130.0 L376.0,135.2 L438.0,124.8 L500.0,140.5 L562.0,119.5 L624.0,130.0 L686.0,114.2 L748.0,124.8 L810.0,119.5 L872.0,130.0" fill="none" stroke="#4f46e5" stroke-width="2.5"/>
<circle cx="872.0" cy="130.0" r="4" fill="#4f46e5"/>
<line x1="872.0" y1="46" x2="872.0" y2="256" stroke="#4f46e5" stroke-width="1.3" stroke-dasharray="4 3" opacity="0.6"/>
<circle cx="872.0" cy="46" r="5" fill="#4f46e5"/>
<text x="862.0" y="32.0" text-anchor="end" style="font-family:-apple-system,Segoe UI,Roboto,Helvetica,Arial,sans-serif;font-size:13px;font-weight:600;fill:#0f172a">Jul 15 &#183; Started daily tracking</text>
</svg>